<!--
  Gamedash admin PWA icon — pixel "G" stacked over the word "ADMIN",
  both rendered as bitmap glyphs to match the 8-bit Press Start 2P
  brand title used elsewhere in the UI. 24x24 viewBox so the admin
  text has room without leaving the visible area on round launchers.
-->
<svg xmlns="http://www.w3.org/2000/svg" viewBox="0 0 24 24" shape-rendering="crispEdges">
  <rect width="24" height="24" fill="#1a1a2e"/>
  <g fill="#4ade80">
    <!-- G: 8x7 glyph centered at x=8..15, y=5..11 -->
    <rect x="9" y="5" width="6" height="1"/>
    <rect x="8" y="6" width="1" height="1"/>
    <rect x="15" y="6" width="1" height="1"/>
    <rect x="8" y="7" width="1" height="1"/>
    <rect x="8" y="8" width="1" height="1"/>
    <rect x="12" y="8" width="4" height="1"/>
    <rect x="8" y="9" width="1" height="1"/>
    <rect x="15" y="9" width="1" height="1"/>
    <rect x="8" y="10" width="1" height="1"/>
    <rect x="15" y="10" width="1" height="1"/>
    <rect x="9" y="11" width="6" height="1"/>

    <!-- ADMIN: 3-wide A, 3-wide D, 5-wide M, 1-wide I, 4-wide N with
         1-pixel gaps between letters; total 20 wide, centered x=2..21,
         y=14..18. -->
    <!-- A -->
    <rect x="3" y="14" width="1" height="1"/>
    <rect x="2" y="15" width="1" height="1"/>
    <rect x="4" y="15" width="1" height="1"/>
    <rect x="2" y="16" width="3" height="1"/>
    <rect x="2" y="17" width="1" height="1"/>
    <rect x="4" y="17" width="1" height="1"/>
    <rect x="2" y="18" width="1" height="1"/>
    <rect x="4" y="18" width="1" height="1"/>
    <!-- D -->
    <rect x="6" y="14" width="2" height="1"/>
    <rect x="6" y="15" width="1" height="1"/>
    <rect x="8" y="15" width="1" height="1"/>
    <rect x="6" y="16" width="1" height="1"/>
    <rect x="8" y="16" width="1" height="1"/>
    <rect x="6" y="17" width="1" height="1"/>
    <rect x="8" y="17" width="1" height="1"/>
    <rect x="6" y="18" width="2" height="1"/>
    <!-- M -->
    <rect x="10" y="14" width="1" height="1"/>
    <rect x="14" y="14" width="1" height="1"/>
    <rect x="10" y="15" width="2" height="1"/>
    <rect x="13" y="15" width="2" height="1"/>
    <rect x="10" y="16" width="1" height="1"/>
    <rect x="12" y="16" width="1" height="1"/>
    <rect x="14" y="16" width="1" height="1"/>
    <rect x="10" y="17" width="1" height="1"/>
    <rect x="14" y="17" width="1" height="1"/>
    <rect x="10" y="18" width="1" height="1"/>
    <rect x="14" y="18" width="1" height="1"/>
    <!-- I -->
    <rect x="16" y="14" width="1" height="5"/>
    <!-- N -->
    <rect x="18" y="14" width="1" height="1"/>
    <rect x="21" y="14" width="1" height="1"/>
    <rect x="18" y="15" width="2" height="1"/>
    <rect x="21" y="15" width="1" height="1"/>
    <rect x="18" y="16" width="1" height="1"/>
    <rect x="20" y="16" width="2" height="1"/>
    <rect x="18" y="17" width="1" height="1"/>
    <rect x="21" y="17" width="1" height="1"/>
    <rect x="18" y="18" width="1" height="1"/>
    <rect x="21" y="18" width="1" height="1"/>
  </g>
</svg>
